<?xml version="1.0" encoding="utf-8"?>
<!-- Generator: Adobe Illustrator 19.2.1, SVG Export Plug-In . SVG Version: 6.00 Build 0)  -->
<svg version="1.1" id="Layer_1" xmlns="http://www.w3.org/2000/svg" xmlns:xlink="http://www.w3.org/1999/xlink" x="0px" y="0px"
	 viewBox="0 0 1133.9 1133.9" style="enable-background:new 0 0 1133.9 1133.9;" xml:space="preserve">
<style type="text/css">
	.st0{fill:#0F4068;}
	.st1{fill:#0D72BA;}
	.st2{font-family:'Roboto-Regular';}
	.st3{font-size:107.001px;}
</style>
<polygon class="st0" points="566.9,842 328.7,704.5 328.7,429.4 566.9,291.8 805.2,429.4 805.2,704.5 "/>
<polygon class="st1" points="567,814.6 352.5,690.8 352.5,443.1 567,319.3 781.5,443.1 781.5,690.8 "/>
<path class="st0" d="M599.4,648.2c1.7-3.4,3.5-6.7,5.1-10c1.6-3.1,1.8-6.4-0.1-9.4c-4-6.4-4.9-13.4-5-20.7c0-1.8,0-3.7,0-6
	c-1.3,0.3-2.3,0.5-3.3,0.9c-15.4,5-31.2,8.1-47.3,9.7c-22.6,2.3-45.3,4.2-67.9,6.1c-3.9,0.3-7.9,0-11.9,0.5
	c3.4,4.6,7.8,7.5,12.9,8.8c15,4.1,30.1,7.9,45.2,11.8c3.5,0.9,7,1.6,10.6,2.4c-3.1,5-8.1,5.1-12.4,4.9c-8.8-0.5-17.6-1.6-26.2-3.3
	c-11.4-2.3-22.5-5.4-33.8-8.1c-2.6-0.6-5.3-0.8-7.9-1.2c-7.5-1-15.8-9.6-16.8-17.1c-0.2-1.3-1.1-2.5-2-4.3c-1.1,1.4-1.7,2.1-2.1,2.8
	c-2.8,4.6-3.8,4.4-10.6,2.4c-1.7-0.5-3.5-0.9-5.3-1.3c-3.1-0.7-4.8-2.4-3.9-5.4c1-3.3-0.5-5.4-2.6-7.2c-3.2-2.7-3.8-3.9,1.4-5.9
	c5.5-2,11.2-1.5,16.8-0.5c2.1,0.4,4.3-0.8,5.1-2.8c1.4-3.3,3.6-6.5,6.1-9.1c4.3-4.4,9.3-8.1,13.8-12.3c6.1-5.8,11.9-12,17.9-17.8
	c17.7-17.1,38.8-28.6,62.1-36.1c10.2-3.3,20.7-5.9,31.2-8.4c4.7-1.1,8.6-3.2,12.1-6.3c11.1-9.6,21.3-20,30.7-31.3
	c3.9-4.7,4.5-10.5,5.7-16.1c1.6-7.2,2.9-14.5,4.5-21.7c2.8-13,18.1-21.6,29.7-18.4c5.1,1.4,9.4-0.6,14-2.2c1.9-0.7,4.3-0.9,6.2-0.4
	c3.5,0.9,5.6,4.6,4.9,8.3c-0.6,3.2-1.2,6.6-2.8,9.4c-5.2,8.8-3,17.3,0.7,25.7c8.9,20.3,11.4,40.5,3.5,62.1
	c-7.2,19.6-17.4,36.7-32,51.4c-0.7,0.7-1.3,1.9-1.1,2.8c1.2,5.9,2.9,11.7,3.7,17.7c1,7.1,2.4,14.2,0.9,21.5
	c-2.7,13.1-8.8,23.9-21.1,30.2c-5.5,2.8-11,5.5-16.5,8.2c-3.2,1.6-5.8,1.5-8.2-1.6C602.3,649.8,600.8,649.2,599.4,648.2z"/>
<text transform="matrix(1 0 0 1 476.3179 732.9189)" class="st0 st2 st3">Lori</text>
</svg>
