<?xml version="1.0" encoding="utf-8"?>
<!-- Generator: Adobe Illustrator 19.2.1, SVG Export Plug-In . SVG Version: 6.00 Build 0)  -->
<svg version="1.1" id="Layer_1" xmlns="http://www.w3.org/2000/svg" xmlns:xlink="http://www.w3.org/1999/xlink" x="0px" y="0px"
	 viewBox="0 0 1133.9 1133.9" style="enable-background:new 0 0 1133.9 1133.9;" xml:space="preserve">
<style type="text/css">
	.st0{fill:#0F4068;}
	.st1{fill:#0D72BA;}
</style>
<polygon class="st0" points="566.9,842 328.7,704.5 328.7,429.4 566.9,291.8 805.2,429.4 805.2,704.5 "/>
<polygon class="st1" points="566.9,814.6 352.4,690.7 352.4,443.1 566.9,319.2 781.4,443.1 781.4,690.7 "/>
<path class="st0" d="M599.4,648.2c1.7-3.4,3.5-6.7,5.1-10c1.6-3.1,1.8-6.4-0.1-9.4c-4-6.4-4.9-13.4-5-20.7c0-1.8,0-3.7,0-6
	c-1.3,0.3-2.3,0.5-3.3,0.9c-15.4,5-31.2,8.1-47.3,9.7c-22.6,2.3-45.3,4.2-67.9,6.1c-3.9,0.3-7.9,0-11.9,0.5
	c3.4,4.6,7.8,7.5,12.9,8.8c15,4.1,30.1,7.9,45.2,11.8c3.5,0.9,7,1.6,10.6,2.4c-3.1,5-8.1,5.1-12.4,4.9c-8.8-0.5-17.6-1.6-26.2-3.3
	c-11.4-2.3-22.5-5.4-33.8-8.1c-2.6-0.6-5.3-0.8-7.9-1.2c-7.5-1-15.8-9.6-16.8-17.1c-0.2-1.3-1.1-2.5-2-4.3c-1.1,1.4-1.7,2.1-2.1,2.8
	c-2.8,4.6-3.8,4.4-10.6,2.4c-1.7-0.5-3.5-0.9-5.3-1.3c-3.1-0.7-4.8-2.4-3.9-5.4c1-3.3-0.5-5.4-2.6-7.2c-3.2-2.7-3.8-3.9,1.4-5.9
	c5.5-2,11.2-1.5,16.8-0.5c2.1,0.4,4.3-0.8,5.1-2.8c1.4-3.3,3.6-6.5,6.1-9.1c4.3-4.4,9.3-8.1,13.8-12.3c6.1-5.8,11.9-12,17.9-17.8
	c17.7-17.1,38.8-28.6,62.1-36.1c10.2-3.3,20.7-5.9,31.2-8.4c4.7-1.1,8.6-3.2,12.1-6.3c11.1-9.6,21.3-20,30.7-31.3
	c3.9-4.7,4.5-10.5,5.7-16.1c1.6-7.2,2.9-14.5,4.5-21.7c2.8-13,18.1-21.6,29.7-18.4c5.1,1.4,9.4-0.6,14-2.2c1.9-0.7,4.3-0.9,6.2-0.4
	c3.5,0.9,5.6,4.6,4.9,8.3c-0.6,3.2-1.2,6.6-2.8,9.4c-5.2,8.8-3,17.3,0.7,25.7c8.9,20.3,11.4,40.5,3.5,62.1
	c-7.2,19.6-17.4,36.7-32,51.4c-0.7,0.7-1.3,1.9-1.1,2.8c1.2,5.9,2.9,11.7,3.7,17.7c1,7.1,2.4,14.2,0.9,21.5
	c-2.7,13.1-8.8,23.9-21.1,30.2c-5.5,2.8-11,5.5-16.5,8.2c-3.2,1.6-5.8,1.5-8.2-1.6C602.3,649.8,600.8,649.2,599.4,648.2z"/>
<g>
	<path class="st0" d="M495.2,724.7h36.1v8.2h-46.1v-76.1h10.1V724.7z"/>
	<path class="st0" d="M538.6,704.1c0-5.5,1.1-10.5,3.3-14.9c2.2-4.4,5.2-7.8,9.1-10.2s8.3-3.6,13.3-3.6c7.7,0,13.9,2.7,18.7,8
		c4.8,5.3,7.1,12.4,7.1,21.3v0.7c0,5.5-1.1,10.4-3.2,14.8c-2.1,4.4-5.1,7.8-9,10.2c-3.9,2.4-8.4,3.7-13.5,3.7
		c-7.7,0-13.9-2.7-18.6-8c-4.8-5.3-7.1-12.4-7.1-21.2V704.1z M548.4,705.3c0,6.3,1.5,11.3,4.4,15.1c2.9,3.8,6.8,5.7,11.7,5.7
		c4.9,0,8.8-1.9,11.7-5.8c2.9-3.8,4.3-9.2,4.3-16.2c0-6.2-1.5-11.2-4.4-15.1c-2.9-3.8-6.9-5.8-11.7-5.8c-4.8,0-8.6,1.9-11.5,5.7
		C549.8,692.8,548.4,698.2,548.4,705.3z"/>
	<path class="st0" d="M629.6,685.1c-1.5-0.2-3-0.4-4.8-0.4c-6.3,0-10.6,2.7-12.9,8.1v40.1h-9.7v-56.5h9.4l0.2,6.5
		c3.2-5,7.7-7.6,13.5-7.6c1.9,0,3.3,0.2,4.3,0.7V685.1z"/>
	<path class="st0" d="M638.5,661.4c0-1.6,0.5-2.9,1.4-4c1-1.1,2.4-1.6,4.3-1.6s3.3,0.5,4.3,1.6c1,1.1,1.5,2.4,1.5,4
		s-0.5,2.9-1.5,3.9c-1,1-2.4,1.6-4.3,1.6s-3.3-0.5-4.3-1.6C639,664.3,638.5,663,638.5,661.4z M648.9,732.9h-9.7v-56.5h9.7V732.9z"/>
</g>
<g>
</g>
<g>
</g>
<g>
</g>
<g>
</g>
<g>
</g>
<g>
</g>
</svg>
